<?xml version="1.0"?>
<svg xmlns:rdf="http://www.w3.org/1999/02/22-rdf-syntax-ns#" xmlns="http://www.w3.org/2000/svg" xmlns:cc="http://web.resource.org/cc/" xmlns:dc="http://purl.org/dc/elements/1.1/" xmlns:svg="http://www.w3.org/2000/svg" id="svg2" viewBox="0 0 107.97 180.14" version="1.0">
  <g id="layer1" transform="translate(-152.02 -250.44)">
    <path id="path5102" d="m494.69 371.34a32.804 32.804 0 1 1 -65.61 0 32.804 32.804 0 1 1 65.61 0z" transform="matrix(.43258 0 0 .40938 42.191 127)" stroke="#687000" stroke-width="3" fill="#e4e600"/>
    <path id="path5104" d="m494.69 371.34a32.804 32.804 0 1 1 -65.61 0 32.804 32.804 0 1 1 65.61 0z" transform="matrix(.43258 0 0 .40938 24.942 115.16)" stroke="#687000" stroke-width="3" fill="#e4e600"/>
    <path id="path5108" d="m494.69 371.34a32.804 32.804 0 1 1 -65.61 0 32.804 32.804 0 1 1 65.61 0z" transform="matrix(.43258 0 0 .40938 -20.467 118.38)" stroke="#687000" stroke-width="3" fill="#e4e600"/>
    <path id="path5106" d="m494.69 371.34a32.804 32.804 0 1 1 -65.61 0 32.804 32.804 0 1 1 65.61 0z" transform="matrix(.43258 0 0 .40938 .53498 112.48)" stroke="#687000" stroke-width="3" fill="#e4e600"/>
    <path id="path5110" d="m494.69 371.34a32.804 32.804 0 1 1 -65.61 0 32.804 32.804 0 1 1 65.61 0z" transform="matrix(.43258 0 0 .40938 -26.143 124.29)" stroke="#687000" stroke-width="3" fill="#e4e600"/>
    <path id="path5094" d="m494.69 371.34a32.804 32.804 0 1 1 -65.61 0 32.804 32.804 0 1 1 65.61 0z" transform="matrix(.43258 0 0 .40938 -13.655 125.91)" stroke="#687000" stroke-width="3" fill="#e4e600"/>
    <path id="path4117" d="m494.69 371.34a32.804 32.804 0 1 1 -65.61 0 32.804 32.804 0 1 1 65.61 0z" transform="matrix(.43258 0 0 .40938 -31.819 138.26)" stroke="#687000" stroke-width="3" fill="#e4e600"/>
    <path id="path5088" d="m494.69 371.34a32.804 32.804 0 1 1 -65.61 0 32.804 32.804 0 1 1 65.61 0z" transform="matrix(.43258 0 0 .40938 -16.001 135.12)" stroke="#687000" stroke-width="3" fill="#e4e600"/>
    <path id="path5096" d="m494.69 371.34a32.804 32.804 0 1 1 -65.61 0 32.804 32.804 0 1 1 65.61 0z" transform="matrix(.43258 0 0 .40938 9.0492 126.44)" stroke="#687000" stroke-width="3" fill="#e4e600"/>
    <path id="path5098" d="m494.69 371.34a32.804 32.804 0 1 1 -65.61 0 32.804 32.804 0 1 1 65.61 0z" transform="matrix(.43258 0 0 .40938 28.348 132.89)" stroke="#687000" stroke-width="3" fill="#e4e600"/>
    <path id="path5100" d="m494.69 371.34a32.804 32.804 0 1 1 -65.61 0 32.804 32.804 0 1 1 65.61 0z" transform="matrix(.43258 0 0 .40938 44.474 138.65)" stroke="#687000" stroke-width="3" fill="#e4e600"/>
    <path id="path5092" d="m494.69 371.34a32.804 32.804 0 1 1 -65.61 0 32.804 32.804 0 1 1 65.61 0z" transform="matrix(.43258 0 0 .40938 22.672 138.26)" stroke="#687000" stroke-width="3" fill="#e4e600"/>
    <path id="path5090" d="m494.69 371.34a32.804 32.804 0 1 1 -65.61 0 32.804 32.804 0 1 1 65.61 0z" transform="matrix(.43258 0 0 .40938 4.5083 136.65)" stroke="#687000" stroke-width="3" fill="#e4e600"/>
    <path id="path5315" d="m53.684 38.41l-0.899 140.83" transform="translate(152.02 250.44)" stroke="#000" stroke-width="1px" fill="none"/>
    <path id="path5319" d="m232.44 289.07l-6.29 140.16 20.44 0.23 12.35-140.61c-7.66 6.62-15.87 10.21-26.5 0.22z" fill-rule="evenodd" stroke="#000" stroke-width="1px" fill="#ff0"/>
    <path id="path5321" d="m179.88 289.3l6.29 140.16-20.44 0.22-12.36-140.61c7.67 6.62 15.87 10.22 26.51 0.23z" fill-rule="evenodd" stroke="#000" stroke-width="1px" fill="#f00"/>
    <path id="path5323" d="m205.26 289.07l-0.54 140.13-18.55 0.26-6.17-140.26c7.66 6.63 14.63 9.86 25.26-0.13z" fill-rule="evenodd" stroke="#000" stroke-width="1px" fill="#ff0"/>
    <path id="path5325" d="m205.93 288.96l-1.12 140.16h21.34l5.84-139.04c-7.67 6.62-15.43 8.87-26.06-1.12z" fill-rule="evenodd" stroke="#000" stroke-width="1px" fill="#f00"/>
  </g>
  <metadata>
    <rdf:RDF>
      <cc:Work>
        <dc:format>image/svg+xml</dc:format>
        <dc:type rdf:resource="http://purl.org/dc/dcmitype/StillImage"/>
        <cc:license rdf:resource="http://creativecommons.org/licenses/publicdomain/"/>
        <dc:publisher>
          <cc:Agent rdf:about="http://openclipart.org/">
            <dc:title>Openclipart</dc:title>
          </cc:Agent>
        </dc:publisher>
        <dc:title>Popcorn</dc:title>
        <dc:date>2007-11-01T02:48:30</dc:date>
        <dc:description>A crude drawing of a box of popcorn, as one might get at the movies or a carnival.</dc:description>
        <dc:source>http://openclipart.org/detail/7878/popcorn-by-paulprogrammer</dc:source>
        <dc:creator>
          <cc:Agent>
            <dc:title>paulprogrammer</dc:title>
          </cc:Agent>
        </dc:creator>
        <dc:subject>
          <rdf:Bag>
            <rdf:li>cinema</rdf:li>
            <rdf:li>clip art</rdf:li>
            <rdf:li>clipart</rdf:li>
            <rdf:li>corn</rdf:li>
            <rdf:li>food</rdf:li>
            <rdf:li>image</rdf:li>
            <rdf:li>junk food</rdf:li>
            <rdf:li>media</rdf:li>
            <rdf:li>movies</rdf:li>
            <rdf:li>pack</rdf:li>
            <rdf:li>popcorn</rdf:li>
            <rdf:li>public domain</rdf:li>
            <rdf:li>svg</rdf:li>
          </rdf:Bag>
        </dc:subject>
      </cc:Work>
      <cc:License rdf:about="http://creativecommons.org/licenses/publicdomain/">
        <cc:permits rdf:resource="http://creativecommons.org/ns#Reproduction"/>
        <cc:permits rdf:resource="http://creativecommons.org/ns#Distribution"/>
        <cc:permits rdf:resource="http://creativecommons.org/ns#DerivativeWorks"/>
      </cc:License>
    </rdf:RDF>
  </metadata>
</svg>
